<svg width="640" height="400" viewBox="0 0 640 400" fill="none" xmlns="http://www.w3.org/2000/svg">
  <rect width="640" height="400" rx="28" fill="url(#paint0_linear_1_2)"/>
  <rect x="120" y="70" width="250" height="250" rx="18" fill="#101A2C" stroke="#5AE2FF" stroke-width="3"/>
  <rect x="170" y="120" width="40" height="40" rx="8" fill="#5AE2FF"/>
  <rect x="210" y="120" width="40" height="40" rx="8" fill="#A86CFF"/>
  <rect x="170" y="160" width="40" height="40" rx="8" fill="#7B5CFF"/>
  <rect x="210" y="160" width="40" height="40" rx="8" fill="#5AE2FF"/>
  <rect x="250" y="140" width="40" height="40" rx="8" fill="#FF69D8"/>
  <rect x="250" y="180" width="40" height="40" rx="8" fill="#A86CFF"/>
  <rect x="420" y="92" width="100" height="18" rx="9" fill="#5AE2FF" fill-opacity="0.7"/>
  <rect x="420" y="128" width="120" height="18" rx="9" fill="#A86CFF" fill-opacity="0.7"/>
  <rect x="420" y="164" width="110" height="18" rx="9" fill="#FF69D8" fill-opacity="0.7"/>
  <text x="320" y="345" text-anchor="middle" fill="#EDF4FF" font-size="34" font-family="Arial, sans-serif" font-weight="700">TETRIS</text>
  <defs>
    <linearGradient id="paint0_linear_1_2" x1="0" y1="0" x2="640" y2="400" gradientUnits="userSpaceOnUse">
      <stop stop-color="#101A2C"/>
      <stop offset="1" stop-color="#2C1645"/>
    </linearGradient>
  </defs>
</svg>
